<svg width="33" height="33" viewBox="0 0 33 33" fill="none" xmlns="http://www.w3.org/2000/svg">
<g clip-path="url(#clip0_9_7671)">
<path d="M11.103 4.89355V7.54602H8.45056V12.851C8.45056 15.7819 10.8245 18.1559 13.7555 18.1559C16.6865 18.1559 19.0604 15.7819 19.0604 12.851V7.54602H16.408V4.89355H20.3867C21.1187 4.89355 21.7129 5.48771 21.7129 6.21979V12.851C21.7129 16.7938 18.8456 20.0657 15.0817 20.6983V22.7977C15.0817 25.3613 17.1599 27.4395 19.7235 27.4395C21.7089 27.4395 23.4038 26.1929 24.067 24.4383C22.6784 23.8189 21.7129 22.4264 21.7129 20.8084C21.7129 18.6108 23.494 16.8297 25.6916 16.8297C27.8892 16.8297 29.6703 18.6108 29.6703 20.8084C29.6703 22.6266 28.4502 24.1597 26.7844 24.6345C25.9701 27.7737 23.1174 30.092 19.7235 30.092C15.6944 30.092 12.4293 26.8268 12.4293 22.7977V20.6983C8.66541 20.067 5.7981 16.7938 5.7981 12.851V6.21979C5.7981 5.48771 6.39225 4.89355 7.12433 4.89355H11.103Z" fill="#20B4EB"/>
</g>
<defs>
<clipPath id="clip0_9_7671">
<rect width="31.8296" height="31.8296" fill="white" transform="translate(0.493164 0.914795)"/>
</clipPath>
</defs>
</svg>
